<svg width="1280" height="720" viewBox="0 0 1280 720" fill="none" xmlns="http://www.w3.org/2000/svg">
  <defs>
    <linearGradient id="bg" x1="0" y1="0" x2="0" y2="720" gradientUnits="userSpaceOnUse">
      <stop stop-color="#08111F"/>
      <stop offset="1" stop-color="#12312F"/>
    </linearGradient>
  </defs>
  <rect width="1280" height="720" fill="url(#bg)"/>
  <text x="72" y="110" fill="#F8FBFF" font-family="Segoe UI, Arial, sans-serif" font-size="56" font-weight="700">Before / After</text>

  <rect x="72" y="144" width="534" height="498" rx="32" fill="#28152F" stroke="#A54D8F" stroke-width="3"/>
  <rect x="676" y="144" width="534" height="498" rx="32" fill="#092625" stroke="#178C7A" stroke-width="3"/>

  <rect x="104" y="176" width="160" height="46" rx="23" fill="#7D3F70"/>
  <text x="133" y="208" fill="#F8FBFF" font-family="Segoe UI, Arial, sans-serif" font-size="24" font-weight="700">BEFORE</text>
  <rect x="708" y="176" width="160" height="46" rx="23" fill="#1F7F74"/>
  <text x="746" y="208" fill="#F8FBFF" font-family="Segoe UI, Arial, sans-serif" font-size="24" font-weight="700">AFTER</text>

  <text x="104" y="298" fill="#F8FBFF" font-family="Segoe UI, Arial, sans-serif" font-size="46" font-weight="700">Prompt sprawl</text>
  <text x="708" y="298" fill="#F8FBFF" font-family="Segoe UI, Arial, sans-serif" font-size="46" font-weight="700">Durable context system</text>

  <g fill="#E4C9EC" font-family="Segoe UI, Arial, sans-serif" font-size="26">
    <text x="104" y="360">- Giant AGENTS file</text>
    <text x="104" y="416">- README stale</text>
    <text x="104" y="472">- Ops only in chat</text>
    <text x="104" y="528">- No durable state file</text>
    <text x="104" y="584">- Architecture guessed per session</text>
  </g>

  <g fill="#C9F2EE" font-family="Segoe UI, Arial, sans-serif" font-size="26">
    <text x="708" y="360">- PROJECT.md as the map</text>
    <text x="708" y="416">- STATE.md as live context</text>
    <text x="708" y="472">- docs/ for stable truth</text>
    <text x="708" y="528">- ADRs for decisions</text>
    <text x="708" y="584">- Docs updated with delivery</text>
  </g>

  <path d="M607 393H664" stroke="#38BDF8" stroke-width="10" stroke-linecap="round"/>
  <path d="M649 377L676 393L649 409" stroke="#38BDF8" stroke-width="10" stroke-linecap="round" stroke-linejoin="round"/>
</svg>

